<svg width="209" height="53" viewBox="0 0 209 53" fill="none" xmlns="http://www.w3.org/2000/svg">
<rect width="209" height="53" fill="#5636D3"/>
<path fill-rule="evenodd" clip-rule="evenodd" d="M36.2091 20.9733C36.3221 21.1236 36.4193 21.2856 36.4986 21.4576C41.1756 22.6383 44.6187 26.5455 44.6187 31.171C44.6187 36.7285 39.6484 41.25 33.5393 41.25C30.3497 41.25 27.4713 40.0172 25.448 38.0484H17.7673C16.1143 38.0484 14.7694 36.8249 14.7694 35.3211C14.7694 34.4574 15.2134 33.6868 15.9043 33.1867C15.2134 32.6867 14.7694 31.916 14.7694 31.0523C14.7694 30.1887 15.2134 29.418 15.9043 28.9179C15.2134 28.4179 14.7694 27.6472 14.7694 26.7836C14.7694 25.9199 15.2134 25.1492 15.9043 24.6492C15.2134 24.1491 14.7694 23.3785 14.7694 22.5148C14.7694 21.011 16.1143 19.7875 17.7673 19.7875H19.467C19.1352 19.3487 18.9404 18.8177 18.9404 18.246C18.9404 17.6743 19.1352 17.1434 19.467 16.7045H14.248C12.5949 16.7045 11.25 15.4811 11.25 13.9773C11.25 12.4735 12.5949 11.25 14.248 11.25H30.2154C31.8684 11.25 33.2133 12.4735 33.2133 13.9773C33.2133 14.549 33.0185 15.0799 32.6867 15.5188H37.9058C39.5588 15.5188 40.9037 16.7422 40.9037 18.246C40.9037 19.7498 39.5588 20.9733 37.9058 20.9733H36.2091ZM39.6003 18.246C39.6003 17.3961 38.8402 16.7045 37.9058 16.7045H21.9384C21.004 16.7045 20.2439 17.3961 20.2439 18.246C20.2439 19.096 21.004 19.7875 21.9384 19.7875H33.7347H37.9058C38.8402 19.7875 39.6003 19.096 39.6003 18.246ZM12.5535 13.9773C12.5535 14.8272 13.3136 15.5188 14.248 15.5188H30.2154C31.1497 15.5188 31.9099 14.8272 31.9099 13.9773C31.9099 13.1273 31.1497 12.4358 30.2154 12.4358H14.248C13.3136 12.4358 12.5535 13.1273 12.5535 13.9773ZM33.7347 20.9733H17.7673C16.833 20.9733 16.0728 21.6648 16.0728 22.5148C16.0728 23.3648 16.833 24.0563 17.7673 24.0563H25.699C27.7059 22.2261 30.4797 21.0919 33.5393 21.0919C33.8542 21.0919 34.1658 21.1046 34.4741 21.1282C34.2486 21.0288 33.9972 20.9733 33.7347 20.9733ZM24.5854 25.2421H17.7673C16.8329 25.2421 16.0728 25.9336 16.0728 26.7836C16.0728 27.6336 16.8329 28.3251 17.7673 28.3251H22.9102C23.2735 27.2042 23.8455 26.1642 24.5854 25.2421ZM22.611 29.5108H17.7673C16.8329 29.5108 16.0728 30.2023 16.0728 31.0523C16.0728 31.9023 16.8329 32.5938 17.7673 32.5938H22.5708C22.4982 32.1288 22.4598 31.6539 22.4598 31.171C22.4598 30.6055 22.5121 30.0511 22.611 29.5108ZM16.0728 35.3211C16.0728 36.1711 16.8329 36.8626 17.7673 36.8626H24.4006C23.6999 35.9345 23.1657 34.895 22.8369 33.7796H17.7673C16.8329 33.7796 16.0728 34.4711 16.0728 35.3211ZM23.7633 31.171C23.7633 36.0747 28.1488 40.0642 33.5393 40.0642C38.9297 40.0642 43.3152 36.0747 43.3152 31.171C43.3152 26.2672 38.9297 22.2777 33.5393 22.2777C28.1488 22.2777 23.7633 26.2672 23.7633 31.171ZM31.8768 29.1445C31.8768 29.8648 32.6212 30.4509 33.5361 30.4509C35.2829 30.4509 36.7039 31.6526 36.7039 33.1297C36.7039 34.3871 35.6741 35.4443 34.2904 35.7312V36.0276C34.2904 36.4065 33.9526 36.7137 33.5361 36.7137C33.1196 36.7137 32.7819 36.4065 32.7819 36.0276V35.7312C31.3982 35.4443 30.3684 34.3871 30.3684 33.1297C30.3684 32.7508 30.7061 32.4436 31.1226 32.4436C31.5391 32.4436 31.8768 32.7508 31.8768 33.1297C31.8768 33.8502 32.6212 34.4363 33.5361 34.4363C34.4511 34.4363 35.1954 33.8502 35.1954 33.1297C35.1954 32.4093 34.4511 31.8232 33.5361 31.8232C31.7894 31.8232 30.3684 30.6215 30.3684 29.1445C30.3684 27.8871 31.3982 26.8299 32.7819 26.543V26.1861C32.7819 25.8073 33.1196 25.5 33.5361 25.5C33.9526 25.5 34.2904 25.8073 34.2904 26.1861V26.543C35.6741 26.8299 36.7039 27.8871 36.7039 29.1445C36.7039 29.5233 36.3662 29.8306 35.9497 29.8306C35.5332 29.8306 35.1954 29.5233 35.1954 29.1445C35.1954 28.424 34.4511 27.8379 33.5361 27.8379C32.6212 27.8379 31.8768 28.424 31.8768 29.1445Z" fill="#FF872C"/>
<path d="M36.4986 21.4576L36.2716 21.5623L36.3216 21.6707L36.4374 21.7L36.4986 21.4576ZM36.2091 20.9733V20.7233H35.7081L36.0093 21.1236L36.2091 20.9733ZM25.448 38.0484L25.6223 37.8692L25.5495 37.7984H25.448V38.0484ZM15.9043 33.1867L16.0509 33.3892L16.3307 33.1867L16.0509 32.9842L15.9043 33.1867ZM15.9043 28.9179L16.0509 29.1205L16.3307 28.9179L16.0509 28.7154L15.9043 28.9179ZM15.9043 24.6492L16.0509 24.8517L16.3307 24.6492L16.0509 24.4467L15.9043 24.6492ZM19.467 19.7875V20.0375H19.9695L19.6664 19.6367L19.467 19.7875ZM19.467 16.7045L19.6664 16.8553L19.9694 16.4545H19.467V16.7045ZM32.6867 15.5188L32.4873 15.368L32.1843 15.7688H32.6867V15.5188ZM25.699 24.0563V24.3063H25.7959L25.8675 24.241L25.699 24.0563ZM34.4741 21.1282L34.4551 21.3774L34.5749 20.8994L34.4741 21.1282ZM24.5854 25.2421L24.7804 25.3985L25.1065 24.9921H24.5854V25.2421ZM22.9102 28.3251V28.5751H23.092L23.1481 28.4021L22.9102 28.3251ZM22.611 29.5108L22.8569 29.5558L22.9109 29.2608H22.611V29.5108ZM22.5708 32.5938V32.8438H22.8628L22.8178 32.5553L22.5708 32.5938ZM24.4006 36.8626V37.1126H24.9025L24.6001 36.712L24.4006 36.8626ZM22.8369 33.7796L23.0767 33.7089L23.0238 33.5296H22.8369V33.7796ZM34.2904 35.7312L34.2396 35.4864L34.0404 35.5277V35.7312H34.2904ZM32.7819 35.7312H33.0319V35.5277L32.8327 35.4864L32.7819 35.7312ZM32.7819 26.543L32.8327 26.7878L33.0319 26.7465V26.543H32.7819ZM34.2904 26.543H34.0404V26.7465L34.2396 26.7878L34.2904 26.543ZM36.7256 21.3528C36.6388 21.1646 36.5325 20.9873 36.4088 20.823L36.0093 21.1236C36.1118 21.2599 36.1998 21.4067 36.2716 21.5623L36.7256 21.3528ZM44.8687 31.171C44.8687 26.4136 41.3301 22.4195 36.5598 21.2152L36.4374 21.7C41.0211 22.8571 44.3687 26.6773 44.3687 31.171H44.8687ZM33.5393 41.5C39.7637 41.5 44.8687 36.8884 44.8687 31.171H44.3687C44.3687 36.5687 39.5332 41 33.5393 41V41.5ZM25.2736 38.2275C27.3441 40.2422 30.2852 41.5 33.5393 41.5V41C30.4143 41 27.5985 39.7921 25.6223 37.8692L25.2736 38.2275ZM17.7673 38.2984H25.448V37.7984H17.7673V38.2984ZM14.5194 35.3211C14.5194 36.9847 15.999 38.2984 17.7673 38.2984V37.7984C16.2295 37.7984 15.0194 36.6651 15.0194 35.3211H14.5194ZM15.7578 32.9842C15.0099 33.5255 14.5194 34.3679 14.5194 35.3211H15.0194C15.0194 34.547 15.417 33.8481 16.0509 33.3892L15.7578 32.9842ZM14.5194 31.0523C14.5194 32.0056 15.0099 32.848 15.7578 33.3892L16.0509 32.9842C15.417 32.5254 15.0194 31.8264 15.0194 31.0523H14.5194ZM15.7578 28.7154C15.0099 29.2567 14.5194 30.0991 14.5194 31.0523H15.0194C15.0194 30.2783 15.417 29.5793 16.0509 29.1205L15.7578 28.7154ZM14.5194 26.7836C14.5194 27.7368 15.0099 28.5792 15.7578 29.1205L16.0509 28.7154C15.417 28.2566 15.0194 27.5576 15.0194 26.7836H14.5194ZM15.7578 24.4467C15.0099 24.9879 14.5194 25.8303 14.5194 26.7836H15.0194C15.0194 26.0095 15.417 25.3105 16.0509 24.8517L15.7578 24.4467ZM14.5194 22.5148C14.5194 23.468 15.0099 24.3104 15.7578 24.8517L16.0509 24.4467C15.417 23.9878 15.0194 23.2889 15.0194 22.5148H14.5194ZM17.7673 19.5375C15.999 19.5375 14.5194 20.8512 14.5194 22.5148H15.0194C15.0194 21.1708 16.2295 20.0375 17.7673 20.0375V19.5375ZM19.467 19.5375H17.7673V20.0375H19.467V19.5375ZM18.6904 18.246C18.6904 18.8761 18.9053 19.4593 19.2676 19.9383L19.6664 19.6367C19.365 19.2381 19.1904 18.7594 19.1904 18.246H18.6904ZM19.2676 16.5538C18.9054 17.0328 18.6904 17.616 18.6904 18.246H19.1904C19.1904 17.7326 19.365 17.254 19.6664 16.8553L19.2676 16.5538ZM14.248 16.9545H19.467V16.4545H14.248V16.9545ZM11 13.9773C11 15.6409 12.4796 16.9545 14.248 16.9545V16.4545C12.7102 16.4545 11.5 15.3212 11.5 13.9773H11ZM14.248 11C12.4796 11 11 12.3137 11 13.9773H11.5C11.5 12.6333 12.7102 11.5 14.248 11.5V11ZM30.2154 11H14.248V11.5H30.2154V11ZM33.4633 13.9773C33.4633 12.3137 31.9837 11 30.2154 11V11.5C31.7531 11.5 32.9633 12.6333 32.9633 13.9773H33.4633ZM32.8861 15.6695C33.2483 15.1905 33.4633 14.6073 33.4633 13.9773H32.9633C32.9633 14.4907 32.7887 14.9693 32.4873 15.368L32.8861 15.6695ZM37.9058 15.2688H32.6867V15.7688H37.9058V15.2688ZM41.1537 18.246C41.1537 16.5824 39.6741 15.2688 37.9058 15.2688V15.7688C39.4435 15.7688 40.6537 16.902 40.6537 18.246H41.1537ZM37.9058 21.2233C39.6741 21.2233 41.1537 19.9096 41.1537 18.246H40.6537C40.6537 19.59 39.4435 20.7233 37.9058 20.7233V21.2233ZM36.2091 21.2233H37.9058V20.7233H36.2091V21.2233ZM37.9058 16.9545C38.7249 16.9545 39.3503 17.5559 39.3503 18.246H39.8503C39.8503 17.2363 38.9555 16.4545 37.9058 16.4545V16.9545ZM21.9384 16.9545H37.9058V16.4545H21.9384V16.9545ZM20.4939 18.246C20.4939 17.5559 21.1193 16.9545 21.9384 16.9545V16.4545C20.8887 16.4545 19.9939 17.2363 19.9939 18.246H20.4939ZM21.9384 19.5375C21.1193 19.5375 20.4939 18.9362 20.4939 18.246H19.9939C19.9939 19.2558 20.8887 20.0375 21.9384 20.0375V19.5375ZM33.7347 19.5375H21.9384V20.0375H33.7347V19.5375ZM37.9058 19.5375H33.7347V20.0375H37.9058V19.5375ZM39.3503 18.246C39.3503 18.9362 38.7249 19.5375 37.9058 19.5375V20.0375C38.9555 20.0375 39.8503 19.2558 39.8503 18.246H39.3503ZM14.248 15.2688C13.4289 15.2688 12.8035 14.6674 12.8035 13.9773H12.3035C12.3035 14.987 13.1983 15.7688 14.248 15.7688V15.2688ZM30.2154 15.2688H14.248V15.7688H30.2154V15.2688ZM31.6599 13.9773C31.6599 14.6674 31.0345 15.2688 30.2154 15.2688V15.7688C31.265 15.7688 32.1599 14.987 32.1599 13.9773H31.6599ZM30.2154 12.6858C31.0345 12.6858 31.6599 13.2871 31.6599 13.9773H32.1599C32.1599 12.9675 31.265 12.1858 30.2154 12.1858V12.6858ZM14.248 12.6858H30.2154V12.1858H14.248V12.6858ZM12.8035 13.9773C12.8035 13.2871 13.4289 12.6858 14.248 12.6858V12.1858C13.1983 12.1858 12.3035 12.9675 12.3035 13.9773H12.8035ZM17.7673 21.2233H33.7347V20.7233H17.7673V21.2233ZM16.3228 22.5148C16.3228 21.8246 16.9483 21.2233 17.7673 21.2233V20.7233C16.7177 20.7233 15.8228 21.505 15.8228 22.5148H16.3228ZM17.7673 23.8063C16.9483 23.8063 16.3228 23.2049 16.3228 22.5148H15.8228C15.8228 23.5246 16.7177 24.3063 17.7673 24.3063V23.8063ZM25.699 23.8063H17.7673V24.3063H25.699V23.8063ZM33.5393 20.8419C30.4178 20.8419 27.5838 21.9991 25.5305 23.8716L25.8675 24.241C27.828 22.4531 30.5416 21.3419 33.5393 21.3419V20.8419ZM34.4931 20.8789C34.1789 20.8549 33.8609 20.8419 33.5393 20.8419V21.3419C33.8475 21.3419 34.1527 21.3544 34.4551 21.3774L34.4931 20.8789ZM33.7347 21.2233C33.9619 21.2233 34.179 21.2713 34.3733 21.3569L34.5749 20.8994C34.3182 20.7863 34.0325 20.7233 33.7347 20.7233V21.2233ZM17.7673 25.4921H24.5854V24.9921H17.7673V25.4921ZM16.3228 26.7836C16.3228 26.0934 16.9482 25.4921 17.7673 25.4921V24.9921C16.7176 24.9921 15.8228 25.7738 15.8228 26.7836H16.3228ZM17.7673 28.0751C16.9482 28.0751 16.3228 27.4738 16.3228 26.7836H15.8228C15.8228 27.7934 16.7176 28.5751 17.7673 28.5751V28.0751ZM22.9102 28.0751H17.7673V28.5751H22.9102V28.0751ZM24.3904 25.0856C23.6325 26.0302 23.0455 27.097 22.6724 28.248L23.1481 28.4021C23.5016 27.3115 24.0586 26.2981 24.7804 25.3985L24.3904 25.0856ZM17.7673 29.7608H22.611V29.2608H17.7673V29.7608ZM16.3228 31.0523C16.3228 30.3621 16.9482 29.7608 17.7673 29.7608V29.2608C16.7176 29.2608 15.8228 30.0425 15.8228 31.0523H16.3228ZM17.7673 32.3438C16.9482 32.3438 16.3228 31.7425 16.3228 31.0523H15.8228C15.8228 32.0622 16.7176 32.8438 17.7673 32.8438V32.3438ZM22.5708 32.3438H17.7673V32.8438H22.5708V32.3438ZM22.2098 31.171C22.2098 31.6672 22.2493 32.155 22.3237 32.6324L22.8178 32.5553C22.7472 32.1027 22.7098 31.6407 22.7098 31.171H22.2098ZM22.3651 29.4658C22.2635 30.0206 22.2098 30.5901 22.2098 31.171H22.7098C22.7098 30.621 22.7607 30.0816 22.8569 29.5558L22.3651 29.4658ZM17.7673 36.6126C16.9482 36.6126 16.3228 36.0113 16.3228 35.3211H15.8228C15.8228 36.3309 16.7176 37.1126 17.7673 37.1126V36.6126ZM24.4006 36.6126H17.7673V37.1126H24.4006V36.6126ZM22.5971 33.8503C22.9348 34.9958 23.4831 36.0622 24.201 37.0132L24.6001 36.712C23.9168 35.8068 23.3966 34.7941 23.0767 33.7089L22.5971 33.8503ZM17.7673 34.0296H22.8369V33.5296H17.7673V34.0296ZM16.3228 35.3211C16.3228 34.6309 16.9482 34.0296 17.7673 34.0296V33.5296C16.7176 33.5296 15.8228 34.3113 15.8228 35.3211H16.3228ZM33.5393 39.8142C28.2641 39.8142 24.0133 35.9149 24.0133 31.171H23.5133C23.5133 36.2345 28.0335 40.3142 33.5393 40.3142V39.8142ZM43.0652 31.171C43.0652 35.9149 38.8144 39.8142 33.5393 39.8142V40.3142C39.045 40.3142 43.5652 36.2345 43.5652 31.171H43.0652ZM33.5393 22.5277C38.8144 22.5277 43.0652 26.427 43.0652 31.171H43.5652C43.5652 26.1074 39.045 22.0277 33.5393 22.0277V22.5277ZM24.0133 31.171C24.0133 26.427 28.2641 22.5277 33.5393 22.5277V22.0277C28.0335 22.0277 23.5133 26.1074 23.5133 31.171H24.0133ZM33.5361 30.2009C32.7003 30.2009 32.1268 29.6744 32.1268 29.1445H31.6268C31.6268 30.0553 32.5421 30.7009 33.5361 30.7009V30.2009ZM36.9539 33.1297C36.9539 31.4769 35.38 30.2009 33.5361 30.2009V30.7009C35.1857 30.7009 36.4539 31.8283 36.4539 33.1297H36.9539ZM34.3411 35.976C35.8093 35.6715 36.9539 34.5351 36.9539 33.1297H36.4539C36.4539 34.239 35.5389 35.217 34.2396 35.4864L34.3411 35.976ZM34.5404 36.0276V35.7312H34.0404V36.0276H34.5404ZM33.5361 36.9637C34.0679 36.9637 34.5404 36.5663 34.5404 36.0276H34.0404C34.0404 36.2467 33.8373 36.4637 33.5361 36.4637V36.9637ZM32.5319 36.0276C32.5319 36.5663 33.0044 36.9637 33.5361 36.9637V36.4637C33.2349 36.4637 33.0319 36.2467 33.0319 36.0276H32.5319ZM32.5319 35.7312V36.0276H33.0319V35.7312H32.5319ZM30.1184 33.1297C30.1184 34.5351 31.263 35.6715 32.7311 35.976L32.8327 35.4864C31.5334 35.217 30.6184 34.239 30.6184 33.1297H30.1184ZM31.1226 32.1936C30.5908 32.1936 30.1184 32.591 30.1184 33.1297H30.6184C30.6184 32.9107 30.8214 32.6936 31.1226 32.6936V32.1936ZM32.1268 33.1297C32.1268 32.591 31.6544 32.1936 31.1226 32.1936V32.6936C31.4238 32.6936 31.6268 32.9106 31.6268 33.1297H32.1268ZM33.5361 34.1863C32.7003 34.1863 32.1268 33.6597 32.1268 33.1297H31.6268C31.6268 34.0406 32.5421 34.6863 33.5361 34.6863V34.1863ZM34.9454 33.1297C34.9454 33.6597 34.372 34.1863 33.5361 34.1863V34.6863C34.5302 34.6863 35.4454 34.0406 35.4454 33.1297H34.9454ZM33.5361 32.0732C34.372 32.0732 34.9454 32.5997 34.9454 33.1297H35.4454C35.4454 32.2188 34.5302 31.5732 33.5361 31.5732V32.0732ZM30.1184 29.1445C30.1184 30.7972 31.6923 32.0732 33.5361 32.0732V31.5732C31.8865 31.5732 30.6184 30.4458 30.6184 29.1445H30.1184ZM32.7311 26.2982C31.263 26.6027 30.1184 27.7391 30.1184 29.1445H30.6184C30.6184 28.0352 31.5334 27.0572 32.8327 26.7878L32.7311 26.2982ZM32.5319 26.1861V26.543H33.0319V26.1861H32.5319ZM33.5361 25.25C33.0044 25.25 32.5319 25.6474 32.5319 26.1861H33.0319C33.0319 25.9671 33.2349 25.75 33.5361 25.75V25.25ZM34.5404 26.1861C34.5404 25.6474 34.0679 25.25 33.5361 25.25V25.75C33.8373 25.75 34.0404 25.9671 34.0404 26.1861H34.5404ZM34.5404 26.543V26.1861H34.0404V26.543H34.5404ZM36.9539 29.1445C36.9539 27.7391 35.8093 26.6027 34.3411 26.2982L34.2396 26.7878C35.5389 27.0572 36.4539 28.0352 36.4539 29.1445H36.9539ZM35.9497 30.0806C36.4815 30.0806 36.9539 29.6832 36.9539 29.1445H36.4539C36.4539 29.3635 36.2509 29.5806 35.9497 29.5806V30.0806ZM34.9454 29.1445C34.9454 29.6832 35.4179 30.0806 35.9497 30.0806V29.5806C35.6485 29.5806 35.4454 29.3635 35.4454 29.1445H34.9454ZM33.5361 28.0879C34.372 28.0879 34.9454 28.6145 34.9454 29.1445H35.4454C35.4454 28.2336 34.5302 27.5879 33.5361 27.5879V28.0879ZM32.1268 29.1445C32.1268 28.6145 32.7003 28.0879 33.5361 28.0879V27.5879C32.5421 27.5879 31.6268 28.2336 31.6268 29.1445H32.1268Z" fill="#FF872C"/>
<path d="M63.282 26.154C63.282 30.234 65.994 32.994 69.522 32.994C71.922 32.994 73.626 31.722 74.418 30.306V33.066C74.418 35.874 72.666 37.362 70.338 37.362C68.178 37.362 66.618 36.282 66.138 34.698H63.978C64.41 37.506 66.882 39.258 70.338 39.258C74.202 39.258 76.626 36.69 76.626 33.066V19.626H74.418V22.026C73.65 20.61 71.922 19.41 69.522 19.41C65.994 19.41 63.282 22.05 63.282 26.154ZM74.418 26.178C74.418 29.274 72.354 31.074 69.954 31.074C67.554 31.074 65.514 29.25 65.514 26.154C65.514 23.058 67.554 21.306 69.954 21.306C72.354 21.306 74.418 23.13 74.418 26.178Z" fill="white"/>
<path d="M92.7967 26.178C92.7967 22.026 89.8927 19.41 86.1487 19.41C82.4287 19.41 79.5007 22.026 79.5007 26.178C79.5007 30.354 82.3327 32.994 86.0527 32.994C89.7967 32.994 92.7967 30.354 92.7967 26.178ZM81.7327 26.178C81.7327 22.866 83.8207 21.306 86.1247 21.306C88.3807 21.306 90.5647 22.866 90.5647 26.178C90.5647 29.514 88.3327 31.074 86.0527 31.074C83.7727 31.074 81.7327 29.514 81.7327 26.178Z" fill="white"/>
<path d="M96.9243 32.778H99.6843V21.786H102.132V19.554H99.6843V18.618C99.6843 17.106 100.26 16.53 101.94 16.53V14.25C98.4843 14.25 96.9243 15.57 96.9243 18.618V19.554H95.3643V21.786H96.9243V32.778Z" fill="white"/>
<path d="M104.557 32.778H107.293V19.554H104.557V32.778ZM105.949 17.802C106.909 17.802 107.677 17.034 107.677 16.05C107.677 15.066 106.909 14.298 105.949 14.298C104.965 14.298 104.197 15.066 104.197 16.05C104.197 17.034 104.965 17.802 105.949 17.802Z" fill="white"/>
<path d="M120.269 32.778H122.981V24.978C122.981 21.282 120.653 19.338 117.557 19.338C115.973 19.338 114.509 19.986 113.621 21.066V19.554H110.885V32.778H113.621V25.386C113.621 22.962 114.941 21.714 116.957 21.714C118.949 21.714 120.269 22.962 120.269 25.386V32.778Z" fill="white"/>
<path d="M125.559 26.106C125.559 30.186 128.319 32.994 131.751 32.994C133.959 32.994 135.543 31.938 136.383 30.81V32.778H139.143V19.554H136.383V21.474C135.567 20.394 134.031 19.338 131.799 19.338C128.319 19.338 125.559 22.026 125.559 26.106ZM136.383 26.154C136.383 29.01 134.439 30.618 132.375 30.618C130.335 30.618 128.367 28.962 128.367 26.106C128.367 23.25 130.335 21.714 132.375 21.714C134.439 21.714 136.383 23.322 136.383 26.154Z" fill="white"/>
<path d="M152.121 32.778H154.833V24.978C154.833 21.282 152.505 19.338 149.409 19.338C147.825 19.338 146.361 19.986 145.473 21.066V19.554H142.737V32.778H145.473V25.386C145.473 22.962 146.793 21.714 148.809 21.714C150.801 21.714 152.121 22.962 152.121 25.386V32.778Z" fill="white"/>
<path d="M157.411 26.154C157.411 30.306 160.099 32.994 163.891 32.994C167.131 32.994 169.243 31.194 169.987 28.602H167.035C166.531 29.97 165.523 30.69 163.891 30.69C161.683 30.69 160.219 29.058 160.219 26.154C160.219 23.274 161.683 21.642 163.891 21.642C165.523 21.642 166.579 22.458 167.035 23.73H169.987C169.243 20.946 167.131 19.338 163.891 19.338C160.099 19.338 157.411 22.026 157.411 26.154Z" fill="white"/>
<path d="M178.281 21.642C180.321 21.642 181.929 22.938 181.977 24.978H174.657C174.945 22.89 176.433 21.642 178.281 21.642ZM184.473 28.842H181.521C181.017 29.874 180.081 30.69 178.401 30.69C176.385 30.69 174.825 29.37 174.633 27.186H184.737C184.809 26.73 184.833 26.298 184.833 25.842C184.833 21.954 182.169 19.338 178.401 19.338C174.489 19.338 171.801 22.002 171.801 26.154C171.801 30.306 174.609 32.994 178.401 32.994C181.641 32.994 183.729 31.146 184.473 28.842Z" fill="white"/>
<path d="M197.39 29.082C197.246 24.306 189.782 25.794 189.782 23.13C189.782 22.242 190.55 21.642 192.014 21.642C193.502 21.642 194.39 22.434 194.486 23.586H197.222C197.078 20.946 195.11 19.338 192.11 19.338C188.99 19.338 187.022 21.042 187.022 23.154C187.022 28.002 194.702 26.514 194.702 29.106C194.702 30.018 193.862 30.69 192.278 30.69C190.766 30.69 189.734 29.802 189.638 28.722H186.806C186.926 31.122 189.158 32.994 192.326 32.994C195.446 32.994 197.39 31.314 197.39 29.082Z" fill="white"/>
</svg>
